<mxfile host="app.diagrams.net" agent="Mozilla/5.0 (Windows NT 10.0; Win64; x64) AppleWebKit/537.36 (KHTML, like Gecko) Chrome/127.0.0.0 Safari/537.36" version="24.7.6">
  <diagram id="i4eVO_KrY9PKAlkSNPrV" name="第 1 页">
    <mxGraphModel dx="1221" dy="725" grid="1" gridSize="10" guides="1" tooltips="1" connect="1" arrows="1" fold="1" page="1" pageScale="1" pageWidth="827" pageHeight="1169" math="0" shadow="0">
      <root>
        <mxCell id="0" />
        <mxCell id="1" parent="0" />
        <mxCell id="n7udF1L_Hz_CkYlMVUgF-7" style="edgeStyle=orthogonalEdgeStyle;rounded=0;orthogonalLoop=1;jettySize=auto;html=1;exitX=0.5;exitY=1;exitDx=0;exitDy=0;entryX=0.5;entryY=0;entryDx=0;entryDy=0;" edge="1" parent="1" source="FuRT-4bFIAWKvJHElas_-1" target="FuRT-4bFIAWKvJHElas_-2">
          <mxGeometry relative="1" as="geometry" />
        </mxCell>
        <mxCell id="n7udF1L_Hz_CkYlMVUgF-8" style="edgeStyle=orthogonalEdgeStyle;rounded=0;orthogonalLoop=1;jettySize=auto;html=1;exitX=0.5;exitY=1;exitDx=0;exitDy=0;entryX=0.5;entryY=0;entryDx=0;entryDy=0;" edge="1" parent="1" source="FuRT-4bFIAWKvJHElas_-1" target="n7udF1L_Hz_CkYlMVUgF-5">
          <mxGeometry relative="1" as="geometry" />
        </mxCell>
        <mxCell id="FuRT-4bFIAWKvJHElas_-1" value="开始" style="rounded=1;whiteSpace=wrap;html=1;" parent="1" vertex="1">
          <mxGeometry x="400" y="10" width="200" height="30" as="geometry" />
        </mxCell>
        <mxCell id="FuRT-4bFIAWKvJHElas_-5" style="edgeStyle=orthogonalEdgeStyle;rounded=0;orthogonalLoop=1;jettySize=auto;html=1;exitX=0.5;exitY=1;exitDx=0;exitDy=0;entryX=0.5;entryY=0;entryDx=0;entryDy=0;" parent="1" source="FuRT-4bFIAWKvJHElas_-2" target="n7udF1L_Hz_CkYlMVUgF-2" edge="1">
          <mxGeometry relative="1" as="geometry">
            <mxPoint x="414" y="130" as="targetPoint" />
          </mxGeometry>
        </mxCell>
        <mxCell id="FuRT-4bFIAWKvJHElas_-2" value="输入大型公开&lt;div&gt;图片数据集&lt;/div&gt;" style="shape=parallelogram;perimeter=parallelogramPerimeter;whiteSpace=wrap;html=1;fixedSize=1;" parent="1" vertex="1">
          <mxGeometry x="352" y="80" width="124" height="30" as="geometry" />
        </mxCell>
        <mxCell id="n7udF1L_Hz_CkYlMVUgF-12" style="edgeStyle=orthogonalEdgeStyle;rounded=0;orthogonalLoop=1;jettySize=auto;html=1;exitX=0.5;exitY=1;exitDx=0;exitDy=0;entryX=0.5;entryY=0;entryDx=0;entryDy=0;" edge="1" parent="1" source="FuRT-4bFIAWKvJHElas_-7" target="FuRT-4bFIAWKvJHElas_-8">
          <mxGeometry relative="1" as="geometry">
            <Array as="points">
              <mxPoint x="414" y="260" />
              <mxPoint x="504" y="260" />
            </Array>
          </mxGeometry>
        </mxCell>
        <mxCell id="FuRT-4bFIAWKvJHElas_-7" value="微调后的识别模型" style="rounded=0;whiteSpace=wrap;html=1;glass=0;" parent="1" vertex="1">
          <mxGeometry x="359" y="210" width="110" height="30" as="geometry" />
        </mxCell>
        <mxCell id="FuRT-4bFIAWKvJHElas_-13" style="edgeStyle=orthogonalEdgeStyle;rounded=0;orthogonalLoop=1;jettySize=auto;html=1;exitX=0.5;exitY=1;exitDx=0;exitDy=0;" parent="1" source="FuRT-4bFIAWKvJHElas_-8" target="FuRT-4bFIAWKvJHElas_-12" edge="1">
          <mxGeometry relative="1" as="geometry" />
        </mxCell>
        <mxCell id="FuRT-4bFIAWKvJHElas_-8" value="模型训练、验证和测试" style="rounded=0;whiteSpace=wrap;html=1;glass=0;" parent="1" vertex="1">
          <mxGeometry x="410" y="280" width="190" height="30" as="geometry" />
        </mxCell>
        <mxCell id="FuRT-4bFIAWKvJHElas_-15" style="edgeStyle=orthogonalEdgeStyle;rounded=0;orthogonalLoop=1;jettySize=auto;html=1;exitX=0.5;exitY=1;exitDx=0;exitDy=0;" parent="1" source="FuRT-4bFIAWKvJHElas_-12" target="FuRT-4bFIAWKvJHElas_-14" edge="1">
          <mxGeometry relative="1" as="geometry" />
        </mxCell>
        <mxCell id="FuRT-4bFIAWKvJHElas_-12" value="输出模型晴雨识别结果" style="rounded=0;whiteSpace=wrap;html=1;glass=0;" parent="1" vertex="1">
          <mxGeometry x="410" y="330" width="190" height="30" as="geometry" />
        </mxCell>
        <mxCell id="FuRT-4bFIAWKvJHElas_-14" value="结束" style="rounded=1;whiteSpace=wrap;html=1;" parent="1" vertex="1">
          <mxGeometry x="400" y="390" width="210" height="30" as="geometry" />
        </mxCell>
        <mxCell id="n7udF1L_Hz_CkYlMVUgF-3" style="edgeStyle=orthogonalEdgeStyle;rounded=0;orthogonalLoop=1;jettySize=auto;html=1;exitX=0.5;exitY=1;exitDx=0;exitDy=0;entryX=0.5;entryY=0;entryDx=0;entryDy=0;" edge="1" parent="1" source="n7udF1L_Hz_CkYlMVUgF-2" target="FuRT-4bFIAWKvJHElas_-7">
          <mxGeometry relative="1" as="geometry" />
        </mxCell>
        <mxCell id="n7udF1L_Hz_CkYlMVUgF-2" value="在Swin-Transformer预训练&lt;span style=&quot;color: rgba(0, 0, 0, 0); font-family: monospace; font-size: 0px; text-align: start; text-wrap: nowrap;&quot;&gt;%3CmxGraphModel%3E%3Croot%3E%3CmxCell%20id%3D%220%22%2F%3E%3CmxCell%20id%3D%221%22%20parent%3D%220%22%2F%3E%3CmxCell%20id%3D%222%22%20value%3D%22%E7%BB%99%E5%87%BA%E4%B8%BB%E8%A6%81%E7%89%B9%E5%BE%81%E4%BF%A1%E6%81%AF%22%20style%3D%22rounded%3D0%3BwhiteSpace%3Dwrap%3Bhtml%3D1%3Bglass%3D0%3B%22%20vertex%3D%221%22%20parent%3D%221%22%3E%3CmxGeometry%20x%3D%22359%22%20y%3D%22210%22%20width%3D%22110%22%20height%3D%2230%22%20as%3D%22geometry%22%2F%3E%3C%2FmxCell%3E%3C%2Froot%3E%3C%2FmxGraphModel%&lt;/span&gt;&lt;span style=&quot;color: rgba(0, 0, 0, 0); font-family: monospace; font-size: 0px; text-align: start; text-wrap: nowrap;&quot;&gt;%3CmxGraphModel%3E%3Croot%3E%3CmxCell%20id%3D%220%22%2F%3E%3CmxCell%20id%3D%221%22%20parent%3D%220%22%2F%3E%3CmxCell%20id%3D%222%22%20value%3D%22%E7%BB%99%E5%87%BA%E4%B8%BB%E8%A6%81%E7%89%B9%E5%BE%81%E4%BF%A1%E6%81%AF%22%20style%3D%22rounded%3D0%3BwhiteSpace%3Dwrap%3Bhtml%3D1%3Bglass%3D0%3B%22%20vertex%3D%221%22%20parent%3D%221%22%3E%3CmxGeometry%20x%3D%22359%22%20y%3D%22210%22%20width%3D%22110%22%20height%3D%2230%22%20as%3D%22geometry%22%2F%3E%3C%2FmxCell%3E%3C%2Froot%3E%3C%2FmxGraphModel%3E&lt;/span&gt;模型上微调" style="rounded=0;whiteSpace=wrap;html=1;glass=0;" vertex="1" parent="1">
          <mxGeometry x="358.5" y="140" width="111" height="40" as="geometry" />
        </mxCell>
        <mxCell id="n7udF1L_Hz_CkYlMVUgF-13" style="edgeStyle=orthogonalEdgeStyle;rounded=0;orthogonalLoop=1;jettySize=auto;html=1;exitX=0.5;exitY=1;exitDx=0;exitDy=0;endArrow=none;endFill=0;" edge="1" parent="1" source="n7udF1L_Hz_CkYlMVUgF-4">
          <mxGeometry relative="1" as="geometry">
            <mxPoint x="505" y="260" as="targetPoint" />
            <Array as="points">
              <mxPoint x="582" y="260" />
              <mxPoint x="505" y="260" />
            </Array>
          </mxGeometry>
        </mxCell>
        <mxCell id="n7udF1L_Hz_CkYlMVUgF-4" value="专业晴雨图像数据集" style="rounded=0;whiteSpace=wrap;html=1;glass=0;" vertex="1" parent="1">
          <mxGeometry x="527" y="210" width="110" height="30" as="geometry" />
        </mxCell>
        <mxCell id="n7udF1L_Hz_CkYlMVUgF-10" style="edgeStyle=orthogonalEdgeStyle;rounded=0;orthogonalLoop=1;jettySize=auto;html=1;exitX=0.5;exitY=1;exitDx=0;exitDy=0;" edge="1" parent="1" source="n7udF1L_Hz_CkYlMVUgF-5" target="n7udF1L_Hz_CkYlMVUgF-9">
          <mxGeometry relative="1" as="geometry" />
        </mxCell>
        <mxCell id="n7udF1L_Hz_CkYlMVUgF-5" value="输入地面气象&lt;div&gt;监测&lt;span style=&quot;background-color: initial;&quot;&gt;视频&lt;/span&gt;&lt;/div&gt;" style="shape=parallelogram;perimeter=parallelogramPerimeter;whiteSpace=wrap;html=1;fixedSize=1;" vertex="1" parent="1">
          <mxGeometry x="520" y="80" width="124" height="30" as="geometry" />
        </mxCell>
        <mxCell id="n7udF1L_Hz_CkYlMVUgF-11" style="edgeStyle=orthogonalEdgeStyle;rounded=0;orthogonalLoop=1;jettySize=auto;html=1;exitX=0.5;exitY=1;exitDx=0;exitDy=0;entryX=0.5;entryY=0;entryDx=0;entryDy=0;" edge="1" parent="1" source="n7udF1L_Hz_CkYlMVUgF-9" target="n7udF1L_Hz_CkYlMVUgF-4">
          <mxGeometry relative="1" as="geometry" />
        </mxCell>
        <mxCell id="n7udF1L_Hz_CkYlMVUgF-9" value="晴雨图像标注&lt;div&gt;和图像增强&lt;/div&gt;" style="rounded=0;whiteSpace=wrap;html=1;glass=0;" vertex="1" parent="1">
          <mxGeometry x="526" y="140" width="111" height="40" as="geometry" />
        </mxCell>
        <mxCell id="n7udF1L_Hz_CkYlMVUgF-15" value="模型迁移" style="text;html=1;align=center;verticalAlign=middle;whiteSpace=wrap;rounded=0;" vertex="1" parent="1">
          <mxGeometry x="476" y="240" width="60" height="30" as="geometry" />
        </mxCell>
      </root>
    </mxGraphModel>
  </diagram>
</mxfile>
